<svg xmlns="http://www.w3.org/2000/svg" width="59" height="64" fill="none"><path fill="#000" d="M26.711 1.246C28.081-.21 30.678-.5 32.144.967c5 4.277 6.212 5.591 24.029 20.988a6.22 6.22 0 0 1 2.158 4.492c.27 8.627-.342 8.506-.381 34.578a2.675 2.675 0 0 1-2.669 2.673c-13.316.002-26.439.03-39.784.302V52.424c4.965-.234 9.682.4 14.62-.268 1.603-.215 2.784-.188 4.305-.824 9.169-3.076 13.417-16.373 5.93-23.335-5.911-7.276-18.85-6.083-23.274 2.24-3.83 6.622-1.918 18.41-1.918 21.826-5.05.063-10.097.056-15.148 0-.033-9.095 0-17.621.112-27.304.252-2.08 2.27-3.22 3.692-4.465 7.6-6.384 15.218-12.757 22.895-19.048"/></svg>